<mxfile host="app.diagrams.net" modified="2021-07-06T14:50:48.461Z" agent="5.0 (Macintosh; Intel Mac OS X 10_15_7) AppleWebKit/537.36 (KHTML, like Gecko) Chrome/91.0.4472.114 Safari/537.36" etag="roePLzZUuH5BIg6ZhJiF" version="14.8.3" type="github">
  <diagram id="m_lp1wQx3Evs8eiDf-fM" name="Page-1">
    <mxGraphModel dx="1426" dy="800" grid="1" gridSize="10" guides="1" tooltips="1" connect="1" arrows="1" fold="1" page="1" pageScale="1" pageWidth="827" pageHeight="1169" math="0" shadow="0">
      <root>
        <mxCell id="0" />
        <mxCell id="1" parent="0" />
        <mxCell id="-KgJPHTQ8vY9QNcXXSXd-6" style="edgeStyle=orthogonalEdgeStyle;rounded=0;orthogonalLoop=1;jettySize=auto;html=1;entryX=0.5;entryY=0;entryDx=0;entryDy=0;" edge="1" parent="1" source="-KgJPHTQ8vY9QNcXXSXd-1" target="-KgJPHTQ8vY9QNcXXSXd-3">
          <mxGeometry relative="1" as="geometry" />
        </mxCell>
        <mxCell id="-KgJPHTQ8vY9QNcXXSXd-1" value="启动迁移" style="rounded=1;whiteSpace=wrap;html=1;" vertex="1" parent="1">
          <mxGeometry x="330" y="120" width="120" height="60" as="geometry" />
        </mxCell>
        <mxCell id="-KgJPHTQ8vY9QNcXXSXd-7" style="edgeStyle=orthogonalEdgeStyle;rounded=0;orthogonalLoop=1;jettySize=auto;html=1;entryX=0.5;entryY=0;entryDx=0;entryDy=0;" edge="1" parent="1" source="-KgJPHTQ8vY9QNcXXSXd-3" target="-KgJPHTQ8vY9QNcXXSXd-4">
          <mxGeometry relative="1" as="geometry" />
        </mxCell>
        <mxCell id="-KgJPHTQ8vY9QNcXXSXd-3" value="&lt;span&gt;读取redis，是否开启迁移&lt;/span&gt;" style="rhombus;whiteSpace=wrap;html=1;" vertex="1" parent="1">
          <mxGeometry x="350" y="250" width="80" height="80" as="geometry" />
        </mxCell>
        <mxCell id="-KgJPHTQ8vY9QNcXXSXd-10" style="edgeStyle=orthogonalEdgeStyle;rounded=0;orthogonalLoop=1;jettySize=auto;html=1;" edge="1" parent="1" source="-KgJPHTQ8vY9QNcXXSXd-4" target="-KgJPHTQ8vY9QNcXXSXd-8">
          <mxGeometry relative="1" as="geometry" />
        </mxCell>
        <mxCell id="-KgJPHTQ8vY9QNcXXSXd-4" value="获取当前迁移进度&lt;br&gt;（读本地，本地没有取redis）" style="rounded=0;whiteSpace=wrap;html=1;" vertex="1" parent="1">
          <mxGeometry x="330" y="390" width="120" height="60" as="geometry" />
        </mxCell>
        <mxCell id="-KgJPHTQ8vY9QNcXXSXd-5" value="tb_user表中的id" style="shape=callout;whiteSpace=wrap;html=1;perimeter=calloutPerimeter;fillColor=#ffe6cc;strokeColor=#d79b00;" vertex="1" parent="1">
          <mxGeometry x="430" y="330" width="90" height="80" as="geometry" />
        </mxCell>
        <mxCell id="-KgJPHTQ8vY9QNcXXSXd-11" style="edgeStyle=orthogonalEdgeStyle;rounded=0;orthogonalLoop=1;jettySize=auto;html=1;entryX=0.5;entryY=0;entryDx=0;entryDy=0;" edge="1" parent="1" source="-KgJPHTQ8vY9QNcXXSXd-8" target="-KgJPHTQ8vY9QNcXXSXd-9">
          <mxGeometry relative="1" as="geometry" />
        </mxCell>
        <mxCell id="-KgJPHTQ8vY9QNcXXSXd-8" value="读取1000条user数据" style="rounded=0;whiteSpace=wrap;html=1;" vertex="1" parent="1">
          <mxGeometry x="330" y="510" width="120" height="60" as="geometry" />
        </mxCell>
        <mxCell id="-KgJPHTQ8vY9QNcXXSXd-14" style="edgeStyle=orthogonalEdgeStyle;rounded=0;orthogonalLoop=1;jettySize=auto;html=1;entryX=0.5;entryY=0;entryDx=0;entryDy=0;" edge="1" parent="1" source="-KgJPHTQ8vY9QNcXXSXd-9" target="-KgJPHTQ8vY9QNcXXSXd-13">
          <mxGeometry relative="1" as="geometry" />
        </mxCell>
        <mxCell id="-KgJPHTQ8vY9QNcXXSXd-9" value="根据user_login表查询拼音识字是否都有" style="rounded=0;whiteSpace=wrap;html=1;" vertex="1" parent="1">
          <mxGeometry x="330" y="630" width="120" height="60" as="geometry" />
        </mxCell>
        <mxCell id="-KgJPHTQ8vY9QNcXXSXd-16" style="edgeStyle=orthogonalEdgeStyle;rounded=0;orthogonalLoop=1;jettySize=auto;html=1;" edge="1" parent="1" source="-KgJPHTQ8vY9QNcXXSXd-13" target="-KgJPHTQ8vY9QNcXXSXd-15">
          <mxGeometry relative="1" as="geometry" />
        </mxCell>
        <mxCell id="-KgJPHTQ8vY9QNcXXSXd-13" value="register表插入" style="rounded=0;whiteSpace=wrap;html=1;" vertex="1" parent="1">
          <mxGeometry x="330" y="750" width="120" height="60" as="geometry" />
        </mxCell>
        <mxCell id="-KgJPHTQ8vY9QNcXXSXd-17" style="edgeStyle=orthogonalEdgeStyle;rounded=0;orthogonalLoop=1;jettySize=auto;html=1;entryX=0;entryY=0.5;entryDx=0;entryDy=0;" edge="1" parent="1" source="-KgJPHTQ8vY9QNcXXSXd-15" target="-KgJPHTQ8vY9QNcXXSXd-3">
          <mxGeometry relative="1" as="geometry">
            <Array as="points">
              <mxPoint x="230" y="900" />
              <mxPoint x="230" y="290" />
            </Array>
          </mxGeometry>
        </mxCell>
        <mxCell id="-KgJPHTQ8vY9QNcXXSXd-15" value="记录redis当前最大的id值" style="rounded=0;whiteSpace=wrap;html=1;" vertex="1" parent="1">
          <mxGeometry x="330" y="870" width="120" height="60" as="geometry" />
        </mxCell>
      </root>
    </mxGraphModel>
  </diagram>
</mxfile>
